<?xml version="1.0" standalone="no"?>
<!DOCTYPE svg PUBLIC "-//W3C//DTD SVG 20010904//EN"
 "http://www.w3.org/TR/2001/REC-SVG-20010904/DTD/svg10.dtd">
<svg version="1.0" xmlns="http://www.w3.org/2000/svg"
 width="512.000000pt" height="512.000000pt" viewBox="0 0 512.000000 512.000000"
 preserveAspectRatio="xMidYMid meet">
<metadata>
Created by potrace 1.14, written by Peter Selinger 2001-2017
</metadata>
<g transform="translate(0.000000,512.000000) scale(0.100000,-0.100000)"
fill="#000000" stroke="none">
<path d="M2135 3580 c-27 -4 -75 -11 -105 -14 -146 -18 -371 -45 -425 -51 -32
-4 -66 -8 -75 -10 -9 -2 -45 -6 -80 -10 -36 -3 -77 -8 -93 -10 -15 -2 -55 -6
-90 -10 -34 -4 -69 -8 -77 -10 -8 -2 -44 -6 -80 -10 -36 -4 -72 -8 -80 -10 -8
-2 -49 -6 -90 -10 -41 -4 -82 -8 -90 -10 -8 -1 -44 -6 -80 -10 -36 -4 -72 -9
-81 -10 -22 -4 -102 -14 -174 -20 -33 -4 -67 -8 -75 -10 -8 -2 -44 -7 -80 -10
-93 -9 -124 -21 -165 -67 -73 -81 -114 -217 -113 -382 0 -127 18 -209 70 -313
l21 -43 -30 -62 c-47 -97 -63 -184 -60 -323 3 -101 8 -133 31 -199 15 -44 34
-89 42 -102 10 -14 12 -24 5 -29 -6 -3 -28 -36 -50 -73 -77 -132 -111 -299
-106 -522 4 -159 7 -179 36 -290 40 -150 119 -269 201 -303 19 -8 69 -18 112
-22 43 -3 87 -8 99 -10 46 -7 123 -17 152 -20 57 -6 150 -16 225 -25 41 -5 99
-12 129 -15 30 -4 61 -8 70 -10 9 -1 48 -6 86 -9 39 -4 81 -9 95 -11 14 -2 50
-7 80 -10 59 -6 80 -9 205 -24 44 -5 105 -12 135 -16 30 -3 66 -7 80 -9 14 -3
57 -7 95 -11 39 -3 77 -8 85 -10 8 -2 46 -6 83 -10 37 -3 76 -8 85 -10 9 -1
44 -6 77 -9 33 -4 74 -9 90 -11 17 -2 57 -7 90 -11 33 -3 71 -8 85 -9 14 -2
50 -6 80 -9 30 -4 93 -11 140 -17 47 -5 101 -12 120 -14 19 -2 76 -9 125 -16
134 -17 209 -18 325 -3 58 7 125 16 150 19 25 3 79 10 120 15 41 5 100 12 130
15 30 3 63 8 72 11 15 4 17 -12 20 -175 3 -201 6 -209 71 -218 26 -3 41 1 55
15 19 19 107 160 163 260 14 25 29 47 35 48 5 2 49 -50 97 -116 97 -130 119
-145 176 -115 17 8 32 17 33 18 1 1 4 83 7 182 5 150 8 180 21 181 17 1 132
14 170 19 55 8 108 14 165 20 33 3 71 7 85 10 14 2 46 7 73 10 268 30 252 27
273 66 28 55 -5 119 -62 119 -46 0 -100 92 -136 235 -23 92 -32 297 -17 410
19 138 80 278 132 303 15 6 39 18 55 25 61 29 49 130 -18 144 -60 11 -103 156
-96 317 5 100 13 138 43 203 10 22 26 36 50 44 23 7 39 22 51 45 23 49 8 84
-45 108 -32 15 -46 30 -62 65 -26 58 -39 134 -39 226 0 143 43 268 97 280 46
10 69 70 45 117 -16 30 -45 39 -184 53 -30 3 -71 7 -90 10 -48 6 -105 13 -170
20 -50 5 -84 9 -255 30 -27 3 -63 8 -80 10 -16 3 -50 7 -75 9 -25 3 -144 17
-265 31 -121 14 -242 28 -270 31 -27 3 -61 7 -75 9 -14 2 -50 7 -80 10 -101
11 -145 16 -170 20 -14 2 -53 7 -87 10 -34 3 -72 8 -85 10 -13 3 -52 7 -88 10
-36 3 -76 8 -90 10 -23 4 -61 9 -160 20 -67 7 -145 17 -170 20 -14 2 -54 7
-90 10 -36 4 -74 9 -85 12 -37 8 -349 11 -400 3z"/>
</g>
</svg>
